<svg height='100px' width='100px'  fill="#fff" xmlns="http://www.w3.org/2000/svg" xmlns:xlink="http://www.w3.org/1999/xlink" version="1.1" x="0px" y="0px" viewBox="0 0 100 100" style="enable-background:new 0 0 100 100;" xml:space="preserve"><path d="M43.082,70.201c0.127,0.055,0.262,0.082,0.396,0.082c0.25,0,0.497-0.094,0.687-0.273l20.771-19.616  c0.2-0.189,0.313-0.452,0.313-0.727s-0.113-0.538-0.313-0.727L44.164,29.324c-0.291-0.275-0.719-0.348-1.082-0.191  c-0.367,0.158-0.604,0.519-0.604,0.918v39.232C42.478,69.682,42.715,70.043,43.082,70.201z M44.478,32.371l18.314,17.296  L44.478,66.963V32.371z"></path><path d="M50,90.211c22.114,0,40.105-17.991,40.105-40.105S72.114,10,50,10S9.895,27.992,9.895,50.106S27.886,90.211,50,90.211z   M50,12c21.012,0,38.105,17.094,38.105,38.105S71.012,88.211,50,88.211S11.895,71.117,11.895,50.106S28.988,12,50,12z"></path></svg>